HIERARCHY
ROOT Hips
{
	OFFSET 0.00000 0.00000 0.00000
	CHANNELS 6 Xposition Yposition Zposition Zrotation Yrotation Xrotation 
	JOINT LHipJoint
	{
		OFFSET 0 0 0
		CHANNELS 3 Zrotation Yrotation Xrotation
		JOINT LeftHip
		{
			OFFSET 1.41496 -1.84582 0.78394
			CHANNELS 3 Zrotation Yrotation Xrotation
			JOINT LeftKnee
			{
				OFFSET 2.58040 -7.08960 0.00000
				CHANNELS 3 Zrotation Yrotation Xrotation
				JOINT LeftAnkle
				{
					OFFSET 2.64719 -7.27309 0.00000
					CHANNELS 3 Zrotation Yrotation Xrotation
					JOINT LeftToe
					{
						OFFSET 0.20718 -0.56921 2.20259
						CHANNELS 3 Zrotation Yrotation Xrotation
						End Site
						{
							OFFSET 0.00000 -0.00000 1.14243
						}
					}
				}
			}
		}
	}
	JOINT RHipJoint
	{
		OFFSET 0 0 0
		CHANNELS 3 Zrotation Yrotation Xrotation
		JOINT RightHip
		{
			OFFSET -1.40551 -1.84582 0.78394
			CHANNELS 3 Zrotation Yrotation Xrotation
			JOINT RightKnee
			{
				OFFSET -2.56572 -7.04926 0.00000
				CHANNELS 3 Zrotation Yrotation Xrotation
				JOINT RightAnkle
				{
					OFFSET -2.57974 -7.08778 0.00000
					CHANNELS 3 Zrotation Yrotation Xrotation
					JOINT RightToe
					{
						OFFSET -0.26704 -0.73369 2.20815
						CHANNELS 3 Zrotation Yrotation Xrotation
						End Site
						{
							OFFSET -0.00000 -0.00000 1.16246
						}
					}
				}
			}
		}
	}
	JOINT lowerback
	{
		OFFSET 0 0 0
		CHANNELS 3 Zrotation Yrotation Xrotation
		JOINT Chest
		{
			OFFSET -0.04690 2.05196 -0.07017
			CHANNELS 3 Zrotation Yrotation Xrotation
			JOINT Chest2
			{
				OFFSET 0.04085 2.05260 0.00800
				CHANNELS 3 Zrotation Yrotation Xrotation
				JOINT lowerneck
				{
					OFFSET 0 0 0
					CHANNELS 3 Zrotation Yrotation Xrotation
					JOINT Neck
					{
						OFFSET -0.03582 1.80995 0.19301
						CHANNELS 3 Zrotation Yrotation Xrotation
						JOINT Head
						{
							OFFSET 0.00952 1.80195 -0.36389
							CHANNELS 3 Zrotation Yrotation Xrotation
							End Site
							{
								OFFSET 0.00392 1.85062 -0.14494
							}
						}
					}
				}
				JOINT LeftCollar
				{
					OFFSET 0 0 0
					CHANNELS 3 Zrotation Yrotation Xrotation
					JOINT LeftShoulder
					{
						OFFSET 3.55224 1.39726 -0.13667
CHANNELS 3 Zrotation Xrotation Yrotation
						JOINT LeftElbow
						{
OFFSET 0 -5.145070 -0.000000
CHANNELS 3 Zrotation Xrotation Yrotation
							JOINT LeftWrist
							{
OFFSET 0 -3.506460 0.000000
CHANNELS 3 Zrotation Xrotation Yrotation
								JOINT lhand
								{
									OFFSET 0 0 0
CHANNELS 3 Zrotation Xrotation Yrotation
									JOINT LFingers
									{
OFFSET 0 -0.629970 0.000000
CHANNELS 3 Zrotation Xrotation Yrotation
										End Site
										{
OFFSET 0 -0.507900 0.000000
										}
									}
								}
								JOINT LThumb
								{
OFFSET 0 0.000000 0.000000
CHANNELS 3 Zrotation Xrotation Yrotation
									End Site
									{
OFFSET 0 -0.515650 0.515650
									}
								}
							}
						}
					}
				}
				JOINT RightCollar
				{
					OFFSET 0 0 0
					CHANNELS 3 Zrotation Yrotation Xrotation
					JOINT RightShoulder
					{
						OFFSET -3.06467 1.61290 -0.28813
CHANNELS 3 Zrotation Xrotation Yrotation
						JOINT RightElbow
						{
OFFSET 0 -5.232000 -0.000000
CHANNELS 3 Zrotation Xrotation Yrotation
							JOINT RightWrist
							{
OFFSET 0 -3.656410 0.000000
CHANNELS 3 Zrotation Xrotation Yrotation
								JOINT rhand
								{
									OFFSET 0 0 0
CHANNELS 3 Zrotation Xrotation Yrotation
									JOINT RFingers
									{
OFFSET 0 -0.656810 0.000000
CHANNELS 3 Zrotation Xrotation Yrotation
										End Site
										{
OFFSET 0 -0.529530 0.000000
										}
									}
								}
								JOINT RThumb
								{
OFFSET 0 0.000000 0.000000
CHANNELS 3 Zrotation Xrotation Yrotation
									End Site
									{
OFFSET 0 -0.537620 0.537620
									}
								}
							}
						}
					}
				}
			}
		}
	}
}
MOTION
Frames: 5
Frame Time: 0.008333333333333333
0.769580 17.877378 -14.956987 -181.328960 -5.765014 -172.475077 0.000000 0.000000 0.000000 -22.371310 -10.847171 -18.390546 4.195793 12.416568 37.221956 0.872337 -13.162189 -17.820254 0.295536 3.495524 9.661479 0.000000 0.000000 0.000000 21.108875 7.661761 -15.966746 -3.173363 -10.970576 32.180605 -0.668053 -9.235641 -21.440983 -0.218142 3.006660 -8.297217 -4.233998 -0.083440 3.073446 1.330082 -0.371476 -3.651221 3.795534 -0.018187 -5.489816 -3.246338 -2.405099 -15.040298 4.777332 -3.216392 9.524201 1.739309 -1.354754 5.456847 0.000000 0.000000 0.000000 -0.441364 9.077144 -12.586403 13.561293 -22.103902 2.660969 11.581493 19.274529 -8.090452 0.000000 0.000000 0.000000 -7.125000 0.000000 0.000000 -13.036597 37.933402 -2.315363 0.000000 0.000000 0.000000 -0.875542 5.140030 26.363665 -18.430099 -28.703488 -4.754455 -19.141664 8.298984 4.487126 0.000000 0.000000 0.000000 7.125000 0.000000 0.000000 6.209992 34.675635 1.581485
0.768140 17.876135 -14.976162 -181.368880 -5.770642 -172.431230 0.000000 0.000000 0.000000 -22.416531 -10.803914 -18.367837 4.192979 12.412903 37.208867 0.868410 -13.223966 -17.807362 0.302407 3.535771 9.774236 0.000000 0.000000 0.000000 21.065225 7.608884 -15.965437 -3.177290 -10.976727 32.201416 -0.680160 -9.181324 -21.506949 -0.220825 3.025180 -8.348851 -4.273394 -0.086319 3.068538 1.332045 -0.377627 -3.656064 3.820402 -0.019561 -5.491649 -3.213813 -2.376697 -15.058295 4.805996 -3.188775 9.513403 1.745526 -1.338263 5.455342 0.000000 0.000000 0.000000 -0.455892 9.054632 -12.903210 13.711680 -22.321105 2.717708 11.660678 18.922187 -8.102755 0.000000 0.000000 0.000000 -7.125000 0.000000 0.000000 -12.972790 37.951006 -2.297890 0.000000 0.000000 0.000000 -0.856825 5.133289 26.032396 -18.127297 -28.319865 -4.609566 -18.981592 8.788951 4.601977 0.000000 0.000000 0.000000 7.125000 0.000000 0.000000 6.353376 34.789505 1.600856
0.766701 17.875146 -14.995209 -181.408164 -5.784475 -172.388656 0.000000 0.000000 0.000000 -22.459653 -10.758748 -18.344429 4.189974 12.408984 37.194634 0.862448 -13.294140 -17.780540 0.310932 3.584414 9.910400 0.000000 0.000000 0.000000 21.022592 7.549010 -15.963047 -3.180580 -10.981798 32.218410 -0.692140 -9.124844 -21.569671 -0.222745 3.038040 -8.384584 -4.305921 -0.091743 3.064456 1.333754 -0.386641 -3.659380 3.841199 -0.022717 -5.492018 -3.183132 -2.349885 -15.085515 4.834341 -3.163321 9.514499 1.751615 -1.322662 5.459180 0.000000 0.000000 0.000000 -0.469848 9.029066 -13.236045 13.871862 -22.551030 2.778962 11.763906 18.530791 -8.137765 0.000000 0.000000 0.000000 -7.125000 0.000000 0.000000 -12.893464 37.992844 -2.269731 0.000000 0.000000 0.000000 -0.827550 5.137616 25.651705 -17.851082 -27.965373 -4.479624 -18.834750 9.237511 4.725606 0.000000 0.000000 0.000000 7.125000 0.000000 0.000000 6.487347 34.912725 1.615266
0.765348 17.874251 -15.014108 -181.444815 -5.800230 -172.346119 0.000000 0.000000 0.000000 -22.499460 -10.713876 -18.322627 4.187022 12.405173 37.180774 0.855876 -13.366241 -17.749569 0.319999 3.635797 10.054328 0.000000 0.000000 0.000000 20.982749 7.491141 -15.959841 -3.183417 -10.986169 32.233145 -0.703535 -9.071846 -21.630034 -0.224468 3.049603 -8.416778 -4.334474 -0.097589 3.060806 1.335775 -0.396028 -3.662275 3.860136 -0.026185 -5.492113 -3.154481 -2.323845 -15.116138 4.863898 -3.138684 9.519628 1.758341 -1.307377 5.464944 0.000000 0.000000 0.000000 -0.483177 8.999201 -13.574979 14.034534 -22.783849 2.841626 11.877212 18.127636 -8.177150 0.000000 0.000000 0.000000 -7.125000 0.000000 0.000000 -12.806515 38.039768 -2.238737 0.000000 0.000000 0.000000 -0.793439 5.146620 25.249252 -17.587632 -27.625433 -4.356649 -18.699212 9.661781 4.848472 0.000000 0.000000 0.000000 7.125000 0.000000 0.000000 6.612244 35.035401 1.626947
0.764105 17.873466 -15.032824 -181.478190 -5.818096 -172.303581 0.000000 0.000000 0.000000 -22.535192 -10.669441 -18.302864 4.184142 12.401509 37.167424 0.848612 -13.440453 -17.713903 0.329685 3.690311 10.207136 0.000000 0.000000 0.000000 20.946363 7.436039 -15.955653 -3.185707 -10.989703 32.245186 -0.714202 -9.023288 -21.687557 -0.225973 3.059746 -8.445115 -4.358295 -0.103871 3.057664 1.338196 -0.405779 -3.664696 3.876890 -0.029980 -5.491917 -3.128304 -2.298716 -15.150691 4.894983 -3.114994 9.529379 1.765866 -1.292456 5.472928 0.000000 0.000000 0.000000 -0.495742 8.964058 -13.920973 14.199973 -23.019834 2.905890 12.002272 17.711160 -8.221192 0.000000 0.000000 0.000000 -7.125000 0.000000 0.000000 -12.710576 38.092187 -2.204576 0.000000 0.000000 0.000000 -0.753650 5.161082 24.821325 -17.339213 -27.302671 -4.241863 -18.577358 10.057119 4.970064 0.000000 0.000000 0.000000 7.125000 0.000000 0.000000 6.726114 35.157058 1.635389
